<svg width="300" height="53" viewBox="0 0 300 53" fill="none" xmlns="http://www.w3.org/2000/svg">
<path d="M41.1504 4.45638C41.0556 4.36157 40.9608 4.31416 40.9608 4.31416C40.5815 4.07712 40.1549 3.79267 39.7282 3.55563C36.7415 1.80152 33.3281 0.663717 29.9147 0.237042L29.488 0.189633H29.3932H29.2984C29.2035 0.189633 29.0613 0.189633 28.9665 0.142225L28.5398 0.0948167H28.4924H28.445C28.1606 0.0948167 27.8761 0.0474083 27.5917 0.0474083C27.5442 0.0474083 27.4494 0.0474083 27.3072 0.0474083L27.0228 0C26.6909 0 26.3116 0 26.0746 0C23.9412 0.0474083 21.8552 0.28445 19.8641 0.805942C19.0107 1.04298 18.347 1.23262 17.6833 1.46966C17.304 1.61188 16.9722 1.7067 16.6403 1.84893C16.3085 1.99115 15.9292 2.13338 15.5973 2.2756C15.4077 2.37042 15.2655 2.41783 15.0759 2.51264L14.7914 2.65487C14.2699 2.93932 13.7484 3.22377 13.2269 3.50822C13.1795 3.55563 13.1321 3.55563 13.1321 3.60303L12.9425 3.74526C12.8003 3.79267 12.7054 3.88748 12.6106 3.9823C12.4684 4.07712 12.2788 4.17193 12.1365 4.26675C4.64602 9.1024 0 17.5885 0 26.4539C0 30.7206 1.04298 34.94 2.98673 38.6378C3.03413 38.78 3.12895 38.9223 3.22377 39.0645C3.27118 39.1593 3.31858 39.2067 3.31858 39.2541C3.4134 39.4437 3.50822 39.6334 3.65044 39.823C3.88748 40.2023 4.07712 40.5815 4.31416 40.9134L4.40898 41.0556C4.50379 41.1979 4.59861 41.3401 4.74083 41.5297L4.83565 41.6719C4.93047 41.8142 5.02528 41.909 5.07269 41.9564C5.35714 42.3357 5.64159 42.7623 5.97345 43.0942C6.06827 43.2364 6.21049 43.3786 6.30531 43.4735C6.58976 43.8053 6.87421 44.1372 7.20607 44.469C7.58534 44.8957 7.9646 45.275 8.39128 45.6542C9.57649 46.7446 10.8565 47.7876 12.1839 48.641C12.2314 48.6884 12.2788 48.6884 12.3736 48.7832C13.2743 49.3521 14.2225 49.8736 15.2181 50.3477L15.7396 50.5847L21.5708 28.6821H34.8451L40.0126 9.14981C45.2276 13.3692 48.3565 19.7693 48.3565 26.4539C48.3565 37.6896 39.9652 47.0291 28.7769 48.2143L28.445 48.2617L27.165 52.9077L27.8287 52.8603C41.8616 52.1492 52.9077 40.5341 52.9077 26.4539C52.9077 17.5885 48.4987 9.38685 41.1504 4.45638ZM5.16751 31.4317C4.78824 29.8199 4.59861 28.1606 4.59861 26.4539C4.59861 20.9545 6.68458 15.6448 10.4298 11.615L5.16751 31.4317ZM12.8477 43.6157C10.9513 42.146 9.33944 40.3445 8.05942 38.3059L16.3085 7.06384C17.7781 6.30531 19.3426 5.689 20.9545 5.26233C21.6656 5.07269 22.3767 4.93047 23.0879 4.83565L12.8477 43.6157ZM31.2421 24.1783H22.7086L27.8761 4.64602C30.6732 4.83565 33.3755 5.54678 35.8881 6.73199L31.2421 24.1783Z" fill="#004AC4"/>
<path d="M80.4993 30.7681C79.9778 32.0481 79.3141 33.0911 78.4608 33.9919C77.6074 34.8926 76.6118 35.5563 75.5215 35.983C74.4311 36.4097 73.2933 36.6467 72.1081 36.6467C70.4962 36.6467 69.1687 36.3149 68.0783 35.6037C66.9879 34.8926 66.1346 34.0867 65.4235 33.1859L65.4709 42.1935H60.9197V16.5456H65.4709V19.8168C66.182 18.7738 67.0828 17.873 68.1732 17.2093C69.2635 16.4982 70.591 16.1663 72.1555 16.1663C73.3407 16.1663 74.4311 16.4034 75.5215 16.83C76.6118 17.2567 77.6074 17.9204 78.4608 18.8212C79.3141 19.7219 80.0252 20.7649 80.5467 22.045C81.0682 23.325 81.3053 24.7472 81.3053 26.4065C81.3053 28.0658 81.0208 29.4881 80.4993 30.7681ZM76.28 23.7517C75.9955 22.9457 75.5689 22.282 75.0474 21.7605C74.5259 21.1916 73.957 20.8123 73.2458 20.4805C72.5821 20.196 71.8236 20.0538 71.0651 20.0538C70.3065 20.0538 69.548 20.196 68.8843 20.4805C68.1732 20.7649 67.5568 21.1916 67.0354 21.7605C66.5139 22.3294 66.0872 22.9931 65.8027 23.7517C65.4709 24.5102 65.3287 25.4109 65.3287 26.3591C65.3287 27.3073 65.4709 28.208 65.8027 28.9666C66.1346 29.7251 66.5139 30.3888 67.0354 30.9577C67.5568 31.5266 68.1732 31.9533 68.8843 32.2377C69.5954 32.5222 70.3065 32.6644 71.0651 32.6644C71.8236 32.6644 72.5821 32.5222 73.2458 32.2377C73.9096 31.9533 74.5259 31.5266 75.0474 30.9577C75.5689 30.3888 75.9481 29.7251 76.28 28.9666C76.5644 28.1606 76.7067 27.3073 76.7067 26.3591C76.7067 25.4109 76.5644 24.5576 76.28 23.7517Z" fill="#004AC4"/>
<path d="M89.5069 36.2674H84.9557V16.5456H89.5069V21.0019C90.1232 19.5323 91.024 18.2997 92.1618 17.3989C93.2996 16.4981 94.7692 16.0715 96.4759 16.1663V20.9545H96.2389C95.2433 20.9545 94.3425 21.0968 93.5366 21.4286C92.7307 21.7605 92.0195 22.2346 91.4032 22.8983C90.7869 23.562 90.3602 24.3679 90.0284 25.3635C89.6965 26.3591 89.5543 27.4969 89.5543 28.7769V36.2674H89.5069Z" fill="#004AC4"/>
<path d="M117.905 30.3888C117.383 31.6214 116.625 32.7118 115.724 33.66C114.776 34.6082 113.685 35.3193 112.405 35.8882C111.125 36.4571 109.703 36.6941 108.186 36.6941C106.716 36.6941 105.294 36.4097 104.014 35.8882C102.734 35.3667 101.644 34.6082 100.695 33.7074C99.7473 32.7592 99.0362 31.6689 98.5147 30.4836C97.9932 29.2984 97.7087 27.9236 97.7087 26.5013C97.7087 25.0791 97.9932 23.7517 98.5147 22.4716C99.0362 21.239 99.7947 20.1012 100.695 19.2005C101.644 18.2523 102.734 17.5412 104.014 16.9723C105.294 16.4034 106.716 16.1663 108.233 16.1663C109.75 16.1663 111.173 16.4508 112.453 16.9723C113.733 17.4938 114.823 18.2523 115.771 19.153C116.719 20.1012 117.431 21.1916 117.952 22.4242C118.474 23.6568 118.758 24.9843 118.758 26.4065C118.711 27.8288 118.426 29.1562 117.905 30.3888ZM113.685 24.0361C113.401 23.2776 112.974 22.5665 112.453 21.9976C111.931 21.4286 111.267 20.9546 110.556 20.6227C109.845 20.2908 109.039 20.1012 108.139 20.1012C107.238 20.1012 106.432 20.2908 105.721 20.6227C105.01 20.9546 104.346 21.4286 103.824 21.9976C103.303 22.5665 102.924 23.2302 102.639 23.9887C102.355 24.7472 102.213 25.5532 102.213 26.4539C102.213 27.3073 102.355 28.1606 102.639 28.9192C102.924 29.7251 103.35 30.3888 103.872 30.9577C104.393 31.5266 105.057 32.0007 105.768 32.3326C106.479 32.6644 107.285 32.8541 108.139 32.8541C109.039 32.8541 109.893 32.6644 110.604 32.3326C111.315 32.0007 111.979 31.5266 112.5 30.9577C113.022 30.3888 113.401 29.7251 113.685 28.9666C113.97 28.208 114.112 27.4021 114.112 26.5013C114.112 25.6006 113.97 24.7946 113.685 24.0361Z" fill="#004AC4"/>
<path d="M137.152 36.2674V32.9963C136.441 34.0392 135.54 34.8926 134.45 35.6037C133.36 36.3148 132.032 36.6941 130.468 36.6941C129.283 36.6941 128.192 36.4571 127.102 36.0304C126.011 35.6037 125.063 34.94 124.21 34.0392C123.357 33.1385 122.693 32.0955 122.171 30.8155C121.65 29.5354 121.413 28.1132 121.413 26.4539C121.413 24.7946 121.65 23.3724 122.171 22.0923C122.693 20.8123 123.357 19.7693 124.21 18.8686C125.063 17.9678 126.011 17.3041 127.149 16.8774C128.24 16.4507 129.377 16.2137 130.563 16.2137C132.175 16.2137 133.502 16.5456 134.592 17.2567C135.683 17.9678 136.536 18.7737 137.295 19.6745V9.00763H141.846V36.2674H137.152ZM136.773 23.799C136.441 23.0405 136.062 22.3768 135.54 21.8079C135.019 21.239 134.403 20.8123 133.739 20.5279C133.028 20.2434 132.317 20.1012 131.558 20.1012C130.8 20.1012 130.041 20.2434 129.377 20.5279C128.714 20.8123 128.097 21.239 127.576 21.7605C127.054 22.3294 126.628 22.9931 126.343 23.7516C126.059 24.5576 125.917 25.4109 125.917 26.4065C125.917 27.3547 126.059 28.2554 126.343 29.014C126.628 29.8199 127.054 30.4836 127.576 31.0051C128.097 31.574 128.714 31.9533 129.377 32.2851C130.041 32.5696 130.8 32.7118 131.558 32.7118C132.317 32.7118 133.028 32.5696 133.739 32.2851C134.45 32.0007 135.019 31.574 135.54 31.0051C136.062 30.4362 136.489 29.7725 136.773 29.014C137.105 28.2554 137.247 27.3547 137.247 26.4065C137.247 25.4109 137.058 24.5576 136.773 23.799Z" fill="#004AC4"/>
<path d="M159.339 16.5454H163.891V36.2673H159.339V33.1857C158.676 34.1339 157.87 34.9398 156.922 35.651C155.973 36.3621 154.693 36.694 153.224 36.694C150.996 36.694 149.289 36.0302 148.056 34.6554C146.824 33.2806 146.255 31.4316 146.255 29.1086V16.5454H150.806V27.7338C150.806 29.2508 151.185 30.4361 151.896 31.2894C152.607 32.1428 153.65 32.522 154.978 32.522C156.305 32.522 157.348 32.0953 158.154 31.242C158.96 30.3886 159.387 29.2034 159.387 27.639V16.5454H159.339Z" fill="#004AC4"/>
<path d="M182.522 35.6986C181.289 36.3623 179.678 36.7416 177.781 36.7416C176.312 36.7416 174.937 36.4571 173.704 35.9356C172.471 35.4141 171.381 34.6556 170.48 33.7548C169.58 32.8067 168.868 31.7163 168.347 30.5311C167.825 29.2985 167.588 27.971 167.588 26.5488C167.588 25.1265 167.825 23.7991 168.347 22.5665C168.868 21.3339 169.58 20.2435 170.48 19.2953C171.381 18.3471 172.472 17.5886 173.752 17.0671C175.032 16.4982 176.359 16.2612 177.829 16.2612C179.678 16.2612 181.242 16.593 182.475 17.2093C183.707 17.8256 184.798 18.6316 185.698 19.6746L182.901 22.7087C182.19 21.9976 181.479 21.3813 180.673 20.9546C179.867 20.4805 178.919 20.2435 177.781 20.2435C176.975 20.2435 176.217 20.4331 175.506 20.765C174.795 21.0968 174.226 21.5709 173.704 22.1398C173.183 22.7087 172.803 23.3724 172.519 24.131C172.234 24.8895 172.092 25.6954 172.092 26.5962C172.092 27.4969 172.234 28.3029 172.519 29.1088C172.803 29.8674 173.23 30.5311 173.752 31.1474C174.273 31.7163 174.889 32.1904 175.6 32.5222C176.312 32.8541 177.118 33.0437 177.971 33.0437C179.061 33.0437 179.962 32.8067 180.768 32.3326C181.574 31.8585 182.332 31.2896 183.044 30.5785L185.746 33.2808C184.845 34.0867 183.755 34.9875 182.522 35.6986Z" fill="#004AC4"/>
<path d="M194.469 30.1043C194.469 30.9577 194.659 31.6214 195.085 32.0007C195.512 32.3799 196.128 32.5696 196.887 32.5696C197.835 32.5696 198.783 32.3325 199.684 31.9058V35.6037C199.115 35.9356 198.499 36.1726 197.835 36.3622C197.171 36.5519 196.46 36.6467 195.607 36.6467C194.801 36.6467 194.042 36.5519 193.331 36.3622C192.62 36.1726 192.004 35.8407 191.53 35.3667C191.008 34.94 190.629 34.3237 190.344 33.6125C190.06 32.854 189.918 31.9533 189.918 30.8629V20.3856H187.405V16.5455H189.918V11.141H194.469V16.5455H199.779V20.3856H194.469V30.1043Z" fill="#004AC4"/>
<path d="M217.841 35.6986C216.609 36.3623 214.997 36.7416 213.1 36.7416C211.631 36.7416 210.256 36.4571 209.023 35.9356C207.791 35.4141 206.7 34.6556 205.8 33.7548C204.899 32.8067 204.188 31.7163 203.666 30.5311C203.145 29.2985 202.908 27.971 202.908 26.5488C202.908 25.1265 203.145 23.7991 203.666 22.5665C204.188 21.3339 204.899 20.2435 205.8 19.2953C206.7 18.3471 207.791 17.5886 209.071 17.0671C210.351 16.4982 211.678 16.2612 213.148 16.2612C214.997 16.2612 216.561 16.593 217.794 17.2093C219.027 17.8256 220.117 18.6316 221.018 19.6746L218.221 22.7087C217.509 21.9976 216.798 21.3813 215.992 20.9546C215.186 20.4805 214.238 20.2435 213.1 20.2435C212.295 20.2435 211.536 20.4331 210.825 20.765C210.114 21.0968 209.545 21.5709 209.023 22.1398C208.502 22.7087 208.123 23.3724 207.838 24.131C207.554 24.8895 207.411 25.6954 207.411 26.5962C207.411 27.4969 207.554 28.3029 207.838 29.1088C208.123 29.8674 208.549 30.5311 209.071 31.1474C209.592 31.7163 210.209 32.1904 210.92 32.5222C211.631 32.8541 212.437 33.0437 213.29 33.0437C214.38 33.0437 215.281 32.8067 216.087 32.3326C216.893 31.8585 217.652 31.2896 218.363 30.5785L221.065 33.2808C220.164 34.1341 219.074 35.0349 217.841 35.6986Z" fill="#004AC4"/>
<path d="M234.671 36.8362L231.922 43.2837H227.607L230.499 36.2199L222.25 16.5928H227.086L232.68 31.242L237.8 16.5928H242.494L234.671 36.8362Z" fill="#004AC4"/>
<path d="M258.186 35.6986C256.953 36.3623 255.341 36.7416 253.445 36.7416C251.975 36.7416 250.6 36.4571 249.368 35.9356C248.135 35.4141 247.045 34.6556 246.144 33.7548C245.243 32.8067 244.532 31.7163 244.011 30.5311C243.489 29.2985 243.252 27.971 243.252 26.5488C243.252 25.1265 243.489 23.7991 244.011 22.5665C244.532 21.3339 245.243 20.2435 246.144 19.2953C247.045 18.3471 248.135 17.5886 249.415 17.0671C250.695 16.4982 252.023 16.2612 253.492 16.2612C255.341 16.2612 256.906 16.593 258.138 17.2093C259.371 17.8256 260.461 18.6316 261.362 19.6746L258.565 22.7087C257.854 21.9976 257.143 21.3813 256.337 20.9546C255.531 20.4805 254.583 20.2435 253.445 20.2435C252.639 20.2435 251.881 20.4331 251.169 20.765C250.458 21.0968 249.889 21.5709 249.368 22.1398C248.846 22.7087 248.467 23.3724 248.183 24.131C247.898 24.8895 247.756 25.6954 247.756 26.5962C247.756 27.4969 247.898 28.3029 248.183 29.1088C248.467 29.8674 248.894 30.5311 249.415 31.1474C249.937 31.7163 250.553 32.1904 251.264 32.5222C251.975 32.8541 252.781 33.0437 253.635 33.0437C254.725 33.0437 255.626 32.8067 256.432 32.3326C257.238 31.8585 257.996 31.2896 258.707 30.5785L261.41 33.2808C260.556 34.1341 259.418 35.0349 258.186 35.6986Z" fill="#004AC4"/>
<path d="M264.965 36.3149V9.05505H269.516V36.3149H264.965Z" fill="#004AC4"/>
<path d="M279.804 31.7637C280.847 32.617 282.08 33.0437 283.549 33.0437C284.687 33.0437 285.635 32.8541 286.441 32.4274C287.247 32.0481 288.053 31.4318 288.859 30.6733L291.514 33.0437C290.566 34.1815 289.428 35.0823 288.148 35.746C286.868 36.4097 285.303 36.7415 283.454 36.7415C282.032 36.7415 280.705 36.5045 279.472 35.983C278.24 35.5089 277.149 34.7978 276.248 33.897C275.348 32.9963 274.637 31.9059 274.115 30.6733C273.594 29.4407 273.309 28.0184 273.309 26.4539C273.309 25.0317 273.546 23.7043 274.02 22.4716C274.494 21.239 275.158 20.1486 276.011 19.2005C276.865 18.2523 277.86 17.5412 279.045 16.9723C280.231 16.4034 281.511 16.1663 282.933 16.1663C284.497 16.1663 285.872 16.4508 287.058 17.0197C288.243 17.5886 289.238 18.3471 289.997 19.3427C290.755 20.3383 291.372 21.4286 291.751 22.7561C292.13 24.0361 292.367 25.411 292.367 26.8332C292.367 27.0228 292.367 27.2125 292.367 27.4495C292.367 27.6391 292.32 27.8762 292.32 28.0658H277.86C278.145 29.6777 278.761 30.9103 279.804 31.7637ZM287.958 25.0791C287.863 24.368 287.721 23.6568 287.484 23.0405C287.247 22.4242 286.915 21.8553 286.489 21.3812C286.062 20.9072 285.54 20.5753 284.972 20.2908C284.403 20.0064 283.739 19.8642 282.98 19.8642C281.606 19.8642 280.42 20.3383 279.52 21.2864C278.619 22.2346 278.05 23.5146 277.86 25.0317H287.958V25.0791Z" fill="#004AC4"/>
<path d="M294.943 14.0645C293.552 14.0645 292.415 12.9267 292.415 11.5361C292.415 10.1454 293.552 9.00763 294.943 9.00763C296.334 9.00763 297.471 10.1454 297.471 11.5361C297.471 12.9267 296.334 14.0645 294.943 14.0645ZM294.943 9.22887C293.647 9.22887 292.604 10.2719 292.604 11.5677C292.604 12.8635 293.647 13.9065 294.943 13.9065C296.239 13.9065 297.282 12.8635 297.282 11.5677C297.282 10.2719 296.239 9.22887 294.943 9.22887Z" fill="#004AC4"/>
<path d="M295.781 10.9987C296.35 10.9987 296.634 11.3148 296.634 11.7256C296.634 12.0417 296.476 12.3262 296.065 12.421L296.666 13.4324H296.286L295.717 12.421H295.338V13.4324H295.022V10.9987H295.781ZM295.781 11.2516H295.307V12.1681H295.781C296.128 12.1681 296.286 11.9785 296.286 11.694C296.286 11.4412 296.128 11.2516 295.781 11.2516Z" fill="#004AC4"/>
</svg>
